<?xml version="1.0" ?><!DOCTYPE svg  PUBLIC '-//W3C//DTD SVG 1.1//EN'  'http://www.w3.org/Graphics/SVG/1.1/DTD/svg11.dtd'><svg enable-background="new 0 0 512 512" height="512px" id="Layer_1" version="1.1" viewBox="0 0 512 512" width="512px" xml:space="preserve" xmlns="http://www.w3.org/2000/svg" xmlns:xlink="http://www.w3.org/1999/xlink"><g><g><g><path d="M253.597,249.729c-9.743,0-20.031,2.086-20.031,13.555c0,5.829,3.024,9.768,8.188,9.768     c3.78,0,7.182-2.333,9.324-6.122c2.645-4.667,2.52-9.037,2.52-14.285V249.729z" fill="#333333"/><path d="M376.436,224.42c-9.932,0-10.56,13.525-10.56,21.962c0,8.435-0.125,26.471,10.435,26.471     c10.436,0,10.937-14.546,10.937-23.415c0-5.817-0.251-12.799-2.011-18.328C383.727,226.31,380.709,224.42,376.436,224.42z" fill="#333333"/><path d="M77.058,249.729c-9.741,0-20.029,2.086-20.029,13.555c0,5.829,3.024,9.768,8.188,9.768     c3.78,0,7.182-2.333,9.322-6.122c2.646-4.667,2.52-9.037,2.52-14.285V249.729z" fill="#333333"/><path d="M481.641,97.198H29.909c-16.638,0-30.126,13.488-30.126,30.126v257.901     c0,16.638,13.488,30.126,30.126,30.126h451.732c16.638,0,30.126-13.488,30.126-30.126V127.324     C511.767,110.686,498.279,97.198,481.641,97.198z M251.959,227.427c-1.638-2.478-4.788-3.499-7.559-3.499     c-5.136,0-9.703,2.632-10.824,8.086c-0.233,1.213-1.119,2.414-2.339,2.475l-13.053-1.411c-1.102-0.25-2.327-1.134-2.009-2.816     c3-15.835,17.3-20.619,30.115-20.619c6.551,0,15.119,1.749,20.283,6.706c6.552,6.122,5.92,14.285,5.92,23.177v20.98     c0,6.311,2.623,9.079,5.085,12.48c0.858,1.226,1.053,2.682-0.045,3.577c-2.751,2.307-7.638,6.552-10.327,8.944l-0.032-0.029     c-0.892,0.799-2.177,0.853-3.183,0.312c-4.472-3.718-5.272-5.435-7.717-8.975c-7.393,7.531-12.629,9.789-22.204,9.789     c-11.337,0-20.156-6.996-20.156-20.988c0-10.932,5.92-18.367,14.361-22.01c7.307-3.207,17.512-3.79,25.323-4.667v-1.748     C253.597,233.985,253.849,230.197,251.959,227.427z M111.549,214.258c0-1.383,1.164-2.488,2.599-2.488l12.541-0.004     c1.312,0.068,2.366,1.061,2.45,2.322v9.023h0.252c3.269-8.727,9.428-12.799,17.724-12.799c8.422,0,13.702,4.072,17.474,12.799     c3.267-8.727,10.684-12.799,18.604-12.799c5.657,0,11.816,2.327,15.587,7.564c4.273,5.817,3.395,14.253,3.395,21.672     l-0.011,43.615c0,1.382-1.164,2.488-2.597,2.488h-13.451c-1.352-0.086-2.418-1.157-2.418-2.482l-0.004-36.64     c0-2.909,0.253-10.183-0.377-12.945c-1.006-4.654-4.022-5.964-7.918-5.964c-3.269,0-6.664,2.183-8.047,5.673     c-1.383,3.491-1.256,9.308-1.256,13.237v36.634c0,1.382-1.164,2.488-2.597,2.488h-13.451c-1.352-0.086-2.418-1.157-2.418-2.482     l-0.013-36.64c0-7.709,1.257-19.054-8.296-19.054c-9.68,0-9.303,11.054-9.303,19.054l-0.006,36.634     c0.001,1.382-1.162,2.488-2.597,2.488h-13.466c-1.282-0.083-2.307-1.046-2.41-2.275L111.549,214.258z M90.636,285.478     c-0.892,0.799-2.178,0.853-3.182,0.312c-4.474-3.718-5.275-5.435-7.72-8.975c-7.392,7.531-12.628,9.789-22.202,9.789     c-11.339,0-20.156-6.996-20.156-20.988c0-10.932,5.92-18.367,14.361-22.01c7.307-3.207,17.512-3.79,25.321-4.667v-1.748     c0-3.207,0.253-6.996-1.636-9.766c-1.638-2.478-4.789-3.499-7.559-3.499c-5.136,0-9.704,2.632-10.824,8.086     c-0.234,1.213-1.119,2.414-2.34,2.475l-13.052-1.411c-1.103-0.25-2.329-1.134-2.009-2.816     c2.998-15.835,17.298-20.619,30.114-20.619c6.552,0,15.117,1.749,20.283,6.706c6.55,6.122,5.921,14.285,5.921,23.177v20.98     c0,6.311,2.621,9.079,5.082,12.48c0.859,1.226,1.053,2.682-0.044,3.577c-2.751,2.307-7.639,6.552-10.328,8.944L90.636,285.478z      M307.311,312.185c-25.279,18.657-61.932,28.58-93.491,28.58c-44.233,0-84.063-16.351-114.208-43.568     c-2.366-2.136-0.255-5.058,2.59-3.4c32.521,18.923,72.735,30.32,114.273,30.32c28.02,0,58.821-5.815,87.161-17.836     C307.912,304.468,311.496,309.098,307.311,312.185z M314.33,330.493c-2.086,1.746-4.069,0.814-3.145-1.491     c3.051-7.62,9.883-24.684,6.648-28.824c-3.234-4.141-21.375-1.964-29.525-0.988c-2.467,0.296-2.85-1.858-0.624-3.422     c14.47-10.164,38.182-7.229,40.935-3.828C331.398,295.375,327.894,319.146,314.33,330.493z M339.538,281.316     c0,1.453-1.589,3.133-3.258,2.258c-13.626-7.136-31.706-7.918-46.771,0.087c-1.539,0.82-3.15-0.835-3.15-2.288v-10.02     c0-1.601,0.03-4.344,1.648-6.787l26.564-38.11l-23.129-0.005c-1.414,0-2.549-1.007-2.558-2.486v-9.876     c0.006-1.503,1.139-2.505,2.503-2.502l44.266-0.004c1.415,0.001,2.55,1.031,2.554,2.495l-0.004,8.47     c-0.01,1.42-1.206,3.275-3.332,6.217l-22.928,32.738c8.512-0.199,17.515,1.074,25.248,5.422c1.744,0.979,2.21,2.431,2.348,3.854     V281.316z M376.31,287.107c-19.61,0-30.296-17.164-30.296-38.544c0-21.525,10.812-38.252,30.296-38.252     c19.989,0,30.798,17.163,30.798,38.979C407.108,270.378,395.169,287.107,376.31,287.107z M472.486,283.474     c-0.152,1.226-1.25,2.177-2.581,2.177h-13.5c-1.247-0.08-2.253-0.995-2.398-2.177v-37.527c0-7.563,0.88-18.618-8.423-18.618     c-3.271,0-6.287,2.182-7.793,5.526c-1.886,4.219-2.14,8.438-2.14,13.092v37.215c-0.023,1.382-1.187,2.488-2.622,2.488h-13.416     c-1.35-0.086-2.418-1.157-2.418-2.482l-0.021-69.143c0.113-1.264,1.229-2.256,2.587-2.256l12.492-0.004     c1.175,0.061,2.144,0.864,2.393,1.937v10.572h0.254c3.771-9.454,9.049-13.963,18.352-13.963c6.032,0,11.942,2.182,15.714,8.145     c3.521,5.527,3.521,14.835,3.521,21.526V283.474z" fill="#333333"/></g></g></g></svg>